<svg xmlns="http://www.w3.org/2000/svg" viewBox="0 0 1000 1000"><path d="M251.9,658c-29.6,0-58.8-6-86.6-17.9-26.8-11.4-51.1-27.7-72.1-48.4-44.2-43.4-68.5-100.6-68.5-160.9s23.6-117.8,66.5-160.7c42.9-42.9,100-66.5,160.7-66.5s3.6,0,5.4,0c21.5-40.4,52.5-74.9,90.7-100.9,46.8-31.8,101.5-48.6,158.2-48.6,105,0,200.3,57.9,249,149.5,58.1,1.8,112.4,25.2,153.6,66.4s66.5,100,66.5,160.7-23.6,117.8-66.5,160.7c-42.9,42.9-100,66.5-160.7,66.5H251.9Zm395.5,265.5l67-157c7.3-17.2,7.5-36.2,.6-53.6s-20.3-30.9-37.5-38.3c-8.8-3.7-18-5.6-27.5-5.6-28.1,0-53.4,16.7-64.4,42.5l-67,157c-7.3,17.2-7.5,36.2-.6,53.6,7,17.3,20.3,30.9,37.5,38.3,8.8,3.7,18,5.6,27.5,5.6,28.1,0,53.4-16.7,64.4-42.5Zm-245,0l67-157c7.3-17.2,7.5-36.2,.6-53.6s-20.3-30.9-37.5-38.3c-8.7-3.7-18-5.6-27.5-5.6-28.1,0-53.4,16.7-64.4,42.5l-67,157c-7.3,17.2-7.5,36.2-.6,53.6,7,17.3,20.3,30.9,37.5,38.3,8.8,3.7,18,5.6,27.5,5.6,28.1,0,53.4-16.7,64.4-42.5Z" fill="#262f33"/><path d="M251.9,622h496.2c105.6,0,191.2-85.5,191.2-191.2s-85.5-191.2-191.2-191.2-10.2,.4-15.2,.8c-37.5-88.3-124.9-150.2-226.7-150.2s-190,62.5-227.1,151.4c-8.9-1.3-18-2-27.2-2-105.6,0-191.2,85.5-191.2,191.2s90.2,191.2,191.2,191.2Z" fill="#fff"/><path d="M583,936c-5.2,0-10.6-1-15.7-3.2-20.3-8.7-29.8-32.2-21.1-52.5l67-157c8.7-20.3,32.2-29.8,52.5-21.1,20.3,8.7,29.8,32.2,21.1,52.5l-67,157c-6.5,15.2-21.3,24.3-36.8,24.3Zm-245,0c-5.2,0-10.6-1-15.7-3.2-20.3-8.7-29.8-32.2-21.1-52.5l67-157c8.7-20.3,32.2-29.8,52.5-21.1,20.3,8.7,29.8,32.2,21.1,52.5l-67,157c-6.5,15.2-21.3,24.3-36.8,24.3Z" fill="#69c2ff"/></svg>